<svg id="svg" version="1.1" xmlns="http://www.w3.org/2000/svg" xmlns:xlink="http://www.w3.org/1999/xlink" width="400" height="400" viewBox="0, 0, 400,400"><g id="svgg"><path id="path0" d="M76.400 82.000 C 76.070 82.213,74.956 82.391,73.924 82.394 C 72.892 82.397,71.936 82.580,71.800 82.800 C 71.664 83.020,70.483 83.200,69.176 83.200 C 67.859 83.200,66.800 83.378,66.800 83.600 C 66.800 83.820,66.080 84.000,65.200 84.000 C 64.320 84.000,63.600 84.180,63.600 84.400 C 63.600 84.637,62.141 84.800,60.024 84.800 C 58.057 84.800,56.336 84.980,56.200 85.200 C 56.064 85.420,54.883 85.600,53.576 85.600 C 52.259 85.600,51.200 85.778,51.200 86.000 C 51.200 86.220,50.300 86.400,49.200 86.400 C 48.100 86.400,47.200 86.580,47.200 86.800 C 47.200 87.039,45.667 87.200,43.400 87.200 C 41.133 87.200,39.600 87.361,39.600 87.600 C 39.600 87.825,38.475 88.000,37.024 88.000 C 35.607 88.000,34.336 88.180,34.200 88.400 C 34.064 88.620,33.243 88.800,32.376 88.800 C 31.509 88.800,30.800 88.980,30.800 89.200 C 30.800 89.422,29.733 89.600,28.400 89.600 C 27.067 89.600,26.000 89.778,26.000 90.000 C 26.000 90.226,24.867 90.400,23.400 90.400 C 21.933 90.400,20.800 90.574,20.800 90.800 C 20.800 91.020,20.260 91.200,19.600 91.200 C 18.940 91.200,18.400 91.380,18.400 91.600 C 18.400 91.820,18.085 92.002,17.700 92.004 C 15.108 92.018,8.946 97.512,7.273 101.300 C 6.909 102.125,6.474 102.800,6.306 102.800 C 6.138 102.800,6.000 103.160,6.000 103.600 C 6.000 104.040,5.820 104.400,5.600 104.400 C 5.380 104.400,5.200 104.749,5.200 105.176 C 5.200 105.603,5.020 106.064,4.800 106.200 C 4.257 106.536,4.257 122.000,4.800 122.000 C 5.020 122.000,5.200 122.900,5.200 124.000 C 5.200 125.100,5.380 126.000,5.600 126.000 C 5.822 126.000,6.000 127.067,6.000 128.400 C 6.000 129.720,6.167 130.800,6.372 130.800 C 6.576 130.800,6.830 132.375,6.936 134.300 C 7.167 138.497,7.560 140.800,8.044 140.800 C 8.240 140.800,8.411 141.925,8.424 143.300 C 8.437 144.675,8.631 146.700,8.856 147.800 C 9.081 148.900,9.425 151.690,9.622 154.000 C 9.819 156.310,10.176 159.190,10.414 160.400 C 10.652 161.610,10.936 163.410,11.044 164.400 C 11.153 165.390,11.403 166.560,11.600 167.000 C 11.796 167.440,12.055 169.150,12.175 170.800 C 12.511 175.452,12.848 177.600,13.240 177.600 C 13.438 177.600,13.600 178.680,13.600 180.000 C 13.600 181.333,13.778 182.400,14.000 182.400 C 14.220 182.400,14.400 183.289,14.400 184.376 C 14.400 185.463,14.580 186.464,14.800 186.600 C 15.023 186.738,15.200 188.604,15.200 190.824 C 15.200 193.208,15.360 194.800,15.600 194.800 C 15.820 194.800,16.000 195.700,16.000 196.800 C 16.000 197.900,16.180 198.800,16.400 198.800 C 16.620 198.800,16.800 199.779,16.800 200.976 C 16.800 202.173,16.980 203.264,17.200 203.400 C 17.420 203.536,17.600 205.169,17.600 207.030 C 17.600 210.269,18.258 213.600,18.897 213.600 C 19.064 213.600,19.200 214.680,19.200 216.000 C 19.200 217.333,19.378 218.400,19.600 218.400 C 19.822 218.400,20.000 219.467,20.000 220.800 C 20.000 222.133,20.178 223.200,20.400 223.200 C 20.641 223.200,20.800 224.867,20.800 227.400 C 20.800 229.933,20.959 231.600,21.200 231.600 C 21.420 231.600,21.600 232.410,21.600 233.400 C 21.600 234.390,21.780 235.200,22.000 235.200 C 22.220 235.200,22.400 236.190,22.400 237.400 C 22.400 238.610,22.580 239.600,22.800 239.600 C 23.038 239.600,23.200 241.125,23.200 243.376 C 23.200 245.463,23.379 247.263,23.600 247.400 C 23.820 247.536,24.000 248.256,24.000 249.000 C 24.000 249.744,24.153 250.447,24.340 250.563 C 24.527 250.678,24.806 252.264,24.961 254.086 C 25.205 256.967,25.913 263.296,26.652 269.200 C 26.776 270.190,27.040 271.171,27.239 271.380 C 27.437 271.589,27.600 272.714,27.600 273.880 C 27.600 275.046,27.780 276.000,28.000 276.000 C 28.236 276.000,28.402 277.437,28.406 279.500 C 28.411 282.638,28.971 285.504,29.726 286.259 C 29.877 286.410,30.000 287.457,30.000 288.587 C 30.000 289.716,30.168 290.811,30.373 291.020 C 30.579 291.229,30.837 293.110,30.947 295.200 C 31.204 300.064,31.582 302.900,32.039 303.380 C 32.237 303.589,32.400 304.084,32.400 304.480 C 32.400 304.876,32.580 305.200,32.800 305.200 C 33.020 305.200,33.200 305.650,33.200 306.200 C 33.200 306.750,33.380 307.200,33.600 307.200 C 33.820 307.200,34.000 307.668,34.000 308.240 C 34.000 308.879,34.462 309.711,35.200 310.400 C 35.860 311.017,36.400 311.769,36.400 312.072 C 36.400 312.375,36.760 312.883,37.200 313.200 C 37.640 313.517,38.000 314.007,38.000 314.288 C 38.000 314.570,38.172 314.800,38.382 314.800 C 38.592 314.800,39.214 315.250,39.764 315.800 C 40.314 316.350,41.023 316.800,41.339 316.800 C 41.655 316.800,42.017 317.068,42.143 317.395 C 42.268 317.722,43.098 318.305,43.985 318.689 C 44.873 319.074,45.600 319.526,45.600 319.694 C 45.600 319.862,45.949 320.000,46.376 320.000 C 46.803 320.000,47.264 320.180,47.400 320.400 C 47.536 320.620,48.627 320.800,49.824 320.800 C 51.021 320.800,52.000 320.980,52.000 321.200 C 52.000 321.725,57.475 321.725,57.800 321.200 C 57.939 320.975,59.863 320.800,62.200 320.800 C 64.537 320.800,66.461 320.625,66.600 320.400 C 66.736 320.180,67.636 320.000,68.600 320.000 C 69.564 320.000,70.464 319.820,70.600 319.600 C 70.736 319.380,71.881 319.200,73.144 319.200 C 74.407 319.200,75.611 319.033,75.820 318.829 C 76.029 318.624,76.818 318.399,77.574 318.329 C 78.714 318.222,79.003 317.996,79.275 317.000 C 79.773 315.172,79.681 83.299,79.181 82.365 C 78.743 81.546,77.380 81.367,76.400 82.000 M321.300 82.052 C 320.902 82.456,320.800 106.567,320.800 199.909 C 320.800 325.074,320.700 318.400,322.571 318.400 C 322.917 318.400,323.200 318.566,323.200 318.768 C 323.200 318.971,324.505 319.219,326.100 319.320 C 329.142 319.512,330.865 319.822,332.200 320.417 C 333.794 321.126,347.933 321.827,348.534 321.226 C 348.768 320.992,349.792 320.800,350.809 320.800 C 352.240 320.800,353.012 320.531,354.229 319.611 C 355.093 318.957,356.113 318.417,356.497 318.411 C 356.880 318.405,357.418 318.040,357.693 317.600 C 357.968 317.160,358.435 316.800,358.731 316.800 C 359.424 316.800,363.600 312.466,363.600 311.746 C 363.600 311.446,363.780 311.200,364.000 311.200 C 364.220 311.200,364.400 310.880,364.400 310.488 C 364.400 310.097,364.760 309.517,365.200 309.200 C 365.706 308.835,366.000 308.165,366.000 307.374 C 366.000 306.632,366.325 305.830,366.800 305.400 C 367.243 304.999,367.600 304.168,367.600 303.538 C 367.600 302.912,367.780 302.400,368.000 302.400 C 368.220 302.400,368.400 301.511,368.400 300.424 C 368.400 299.337,368.580 298.336,368.800 298.200 C 369.020 298.064,369.200 296.343,369.200 294.376 C 369.200 292.259,369.363 290.800,369.600 290.800 C 369.826 290.800,370.000 289.667,370.000 288.200 C 370.000 286.770,370.160 285.600,370.356 285.600 C 370.827 285.600,371.187 283.510,371.595 278.400 C 371.779 276.090,372.118 273.300,372.347 272.200 C 372.576 271.100,372.953 269.300,373.186 268.200 C 373.418 267.100,373.981 262.780,374.437 258.600 C 374.894 254.420,375.432 250.940,375.634 250.867 C 375.835 250.793,376.000 249.589,376.000 248.190 C 376.000 246.792,376.180 245.536,376.400 245.400 C 376.627 245.260,376.800 243.263,376.800 240.776 C 376.800 238.125,376.958 236.400,377.200 236.400 C 377.420 236.400,377.600 236.040,377.600 235.600 C 377.600 235.160,377.780 234.800,378.000 234.800 C 378.222 234.800,378.400 233.733,378.400 232.400 C 378.400 231.067,378.578 230.000,378.800 230.000 C 379.041 230.000,379.200 228.333,379.200 225.800 C 379.200 223.267,379.359 221.600,379.600 221.600 C 379.820 221.600,380.000 220.880,380.000 220.000 C 380.000 219.120,380.180 218.400,380.400 218.400 C 380.622 218.400,380.800 217.341,380.800 216.024 C 380.800 214.717,380.980 213.536,381.200 213.400 C 381.420 213.264,381.600 212.544,381.600 211.800 C 381.600 211.056,381.780 210.336,382.000 210.200 C 382.220 210.064,382.400 208.354,382.400 206.400 C 382.400 204.446,382.580 202.736,382.800 202.600 C 383.020 202.464,383.200 201.193,383.200 199.776 C 383.200 198.325,383.375 197.200,383.600 197.200 C 383.820 197.200,384.000 196.480,384.000 195.600 C 384.000 194.720,384.180 194.000,384.400 194.000 C 384.640 194.000,384.800 192.408,384.800 190.024 C 384.800 187.804,384.977 185.938,385.200 185.800 C 385.420 185.664,385.600 184.584,385.600 183.400 C 385.600 182.216,385.760 181.148,385.956 181.027 C 386.531 180.672,387.507 174.128,387.840 168.400 C 387.953 166.441,388.320 164.406,388.705 163.600 C 389.368 162.212,389.655 160.315,390.373 152.600 C 390.577 150.400,390.929 147.790,391.155 146.800 C 391.381 145.810,391.573 144.055,391.583 142.900 C 391.592 141.745,391.780 140.800,392.000 140.800 C 392.220 140.800,392.400 139.900,392.400 138.800 C 392.400 137.700,392.580 136.800,392.800 136.800 C 393.041 136.800,393.200 135.133,393.200 132.600 C 393.200 130.067,393.359 128.400,393.600 128.400 C 393.820 128.400,394.000 127.680,394.000 126.800 C 394.000 125.920,394.180 125.200,394.400 125.200 C 394.620 125.200,394.800 124.401,394.800 123.424 C 394.800 122.447,394.980 121.536,395.200 121.400 C 395.443 121.250,395.600 118.337,395.600 114.000 C 395.600 109.663,395.443 106.750,395.200 106.600 C 394.980 106.464,394.800 105.953,394.800 105.465 C 394.800 104.976,394.440 104.317,394.000 104.000 C 393.560 103.683,393.200 103.131,393.200 102.773 C 393.200 101.255,387.487 94.000,386.291 94.000 C 386.151 94.000,385.372 93.550,384.562 93.000 C 383.751 92.450,382.708 91.996,382.244 91.991 C 381.780 91.986,380.950 91.630,380.400 91.200 C 379.654 90.617,378.764 90.416,376.900 90.409 C 375.506 90.404,374.400 90.223,374.400 90.000 C 374.400 89.774,373.267 89.600,371.800 89.600 C 370.333 89.600,369.200 89.426,369.200 89.200 C 369.200 88.980,368.851 88.800,368.424 88.800 C 367.997 88.800,367.536 88.620,367.400 88.400 C 367.264 88.180,365.554 88.000,363.600 88.000 C 361.646 88.000,359.936 87.820,359.800 87.600 C 359.664 87.380,358.121 87.200,356.371 87.200 C 354.621 87.200,352.787 86.992,352.295 86.738 C 351.803 86.483,351.087 86.123,350.705 85.938 C 350.323 85.752,348.478 85.600,346.605 85.600 C 344.602 85.600,343.200 85.435,343.200 85.200 C 343.200 84.965,341.808 84.800,339.824 84.800 C 337.967 84.800,336.336 84.620,336.200 84.400 C 336.064 84.180,335.513 84.000,334.976 84.000 C 334.439 84.000,334.000 83.820,334.000 83.600 C 334.000 83.367,332.667 83.200,330.800 83.200 C 329.040 83.200,327.600 83.039,327.600 82.842 C 327.600 82.645,326.925 82.382,326.100 82.257 C 325.275 82.133,323.970 81.921,323.200 81.787 C 322.304 81.631,321.620 81.727,321.300 82.052 " stroke="none" fill="#f77320" fill-rule="evenodd"></path><path id="path1" d="M179.400 116.860 C 177.747 117.776,176.775 119.278,173.577 125.849 C 168.079 137.145,161.934 149.738,157.401 159.000 C 152.483 169.049,146.521 181.281,141.998 190.600 C 140.290 194.120,136.316 202.220,133.167 208.600 C 126.830 221.438,126.173 223.740,128.200 226.013 C 129.997 228.029,129.520 228.000,160.907 228.000 C 183.188 228.000,190.355 228.115,190.720 228.480 C 191.084 228.844,191.200 235.478,191.200 255.893 C 191.200 287.373,190.997 285.954,195.672 287.218 C 198.648 288.022,200.181 286.900,204.251 280.939 C 205.280 279.433,207.219 276.614,208.561 274.676 C 216.737 262.862,221.336 256.169,225.654 249.800 C 228.339 245.840,230.885 242.150,231.311 241.600 C 232.030 240.672,238.958 230.639,245.673 220.800 C 247.250 218.490,250.544 213.720,252.994 210.200 C 257.580 203.612,260.906 198.777,268.700 187.367 C 274.290 179.184,274.667 176.969,270.908 174.393 L 269.459 173.400 243.914 173.291 C 223.222 173.203,218.330 173.083,218.166 172.656 C 218.055 172.366,219.883 168.185,222.229 163.364 C 224.576 158.544,227.624 152.260,229.003 149.400 C 230.382 146.540,233.712 139.700,236.404 134.200 C 242.416 121.916,242.753 119.952,239.287 117.400 C 237.994 116.448,181.067 115.935,179.400 116.860 " stroke="none" fill="#f9fbfb" fill-rule="evenodd"></path><path id="path2" d="M113.600 55.600 C 113.600 55.820,113.330 56.000,113.000 56.000 C 112.670 56.000,112.400 56.180,112.400 56.400 C 112.400 56.620,111.847 56.800,111.171 56.800 C 109.956 56.800,108.608 57.674,109.086 58.152 C 109.222 58.289,108.713 58.400,107.956 58.400 C 106.623 58.400,105.443 58.996,103.825 60.486 C 103.398 60.879,102.908 61.200,102.735 61.200 C 102.218 61.200,98.800 64.781,98.800 65.322 C 98.800 65.598,98.440 66.083,98.000 66.400 C 97.560 66.717,97.200 67.297,97.200 67.688 C 97.200 68.080,97.020 68.400,96.800 68.400 C 96.580 68.400,96.400 68.925,96.400 69.567 C 96.400 70.208,96.203 70.799,95.963 70.879 C 95.723 70.959,95.498 71.514,95.463 72.112 C 95.428 72.710,95.282 73.200,95.137 73.200 C 93.953 73.201,93.766 321.247,94.946 325.600 C 96.205 330.243,96.562 331.397,96.804 331.600 C 96.935 331.710,97.353 332.469,97.733 333.286 C 98.365 334.644,100.848 337.331,104.011 340.078 C 104.762 340.730,105.504 341.058,105.891 340.910 C 106.316 340.746,106.434 340.821,106.242 341.132 C 106.042 341.455,106.385 341.600,107.349 341.600 C 108.395 341.600,108.810 341.801,109.000 342.400 C 109.194 343.010,109.605 343.200,110.731 343.200 C 111.774 343.200,112.354 343.435,112.707 344.000 C 113.497 345.264,286.718 345.264,287.507 344.000 C 287.841 343.465,288.440 343.200,289.315 343.200 C 290.165 343.200,290.826 342.919,291.200 342.400 C 291.519 341.958,292.235 341.600,292.802 341.600 C 294.847 341.600,302.000 335.786,302.000 334.124 C 302.000 333.817,302.360 333.180,302.800 332.708 C 303.240 332.236,303.600 331.613,303.600 331.325 C 303.600 331.036,303.780 330.800,304.000 330.800 C 304.220 330.800,304.400 330.455,304.400 330.033 C 304.400 329.611,304.761 328.425,305.201 327.397 C 305.997 325.540,306.002 324.714,305.994 200.064 C 305.985 72.683,305.985 72.652,304.674 71.341 C 304.523 71.190,304.400 70.647,304.400 70.133 C 304.400 69.620,304.220 69.200,304.000 69.200 C 303.780 69.200,303.600 68.842,303.600 68.403 C 303.600 67.965,303.240 67.382,302.800 67.107 C 302.360 66.832,302.000 66.356,302.000 66.049 C 302.000 65.741,301.280 64.708,300.400 63.754 C 299.520 62.799,298.798 61.879,298.795 61.709 C 298.793 61.539,298.073 61.056,297.195 60.636 C 296.318 60.215,295.600 59.749,295.600 59.600 C 295.600 59.131,293.616 58.400,292.344 58.400 C 291.462 58.400,291.067 58.179,290.916 57.600 C 290.787 57.108,290.370 56.800,289.833 56.800 C 288.817 56.800,286.808 55.938,286.803 55.500 C 286.801 55.335,247.830 55.200,200.200 55.200 C 142.733 55.200,113.600 55.335,113.600 55.600 M238.587 115.995 C 242.364 117.431,243.481 121.774,241.230 126.266 C 240.586 127.549,238.716 131.390,237.073 134.800 C 233.950 141.282,227.949 153.624,222.440 164.895 C 220.658 168.540,219.200 171.720,219.200 171.961 C 219.200 172.275,226.352 172.400,244.300 172.401 C 272.038 172.403,270.666 172.282,272.833 174.931 C 275.201 177.828,274.674 180.216,270.258 186.600 C 268.585 189.020,266.055 192.710,264.637 194.800 C 259.044 203.044,256.247 207.006,255.931 207.133 C 255.749 207.207,255.600 207.454,255.600 207.683 C 255.600 207.911,254.813 209.201,253.851 210.549 C 252.889 211.897,251.233 214.260,250.170 215.800 C 247.632 219.478,241.946 227.731,239.008 232.000 C 235.750 236.735,232.972 240.757,229.890 245.200 C 228.441 247.290,226.028 250.796,224.527 252.990 C 219.275 260.675,209.657 274.604,209.330 275.000 C 209.149 275.220,207.489 277.650,205.641 280.400 C 200.275 288.389,198.176 289.753,194.318 287.757 C 190.184 285.620,190.400 287.351,190.400 256.397 C 190.400 232.044,190.336 229.261,189.767 229.043 C 189.419 228.909,176.054 228.800,160.067 228.799 C 133.192 228.799,130.895 228.746,129.608 228.099 C 127.568 227.074,126.400 225.104,126.400 222.685 C 126.400 220.536,126.094 221.239,134.700 203.600 C 142.049 188.538,146.776 178.837,151.070 170.000 C 155.106 161.696,156.186 159.504,157.080 157.800 C 157.311 157.360,157.851 156.280,158.280 155.400 C 158.709 154.520,159.257 153.440,159.497 153.000 C 159.736 152.560,160.205 151.570,160.538 150.800 C 161.292 149.057,169.063 132.856,169.604 131.900 C 170.555 130.219,170.900 129.527,173.245 124.600 C 178.042 114.523,173.788 115.603,208.674 115.601 C 226.724 115.601,237.938 115.748,238.587 115.995 " stroke="none" fill="#0b64fa" fill-rule="evenodd"></path><path id="path3" d="M178.555 116.362 C 176.870 117.389,176.134 118.533,173.245 124.600 C 171.884 127.460,170.563 130.160,170.310 130.600 C 169.781 131.521,168.317 134.503,165.598 140.200 C 164.549 142.400,162.859 145.891,161.845 147.957 C 160.830 150.024,160.005 151.914,160.011 152.157 C 160.017 152.401,161.254 150.080,162.760 147.000 C 172.199 127.698,175.200 121.516,175.200 121.373 C 175.200 120.526,177.885 117.156,178.969 116.641 C 181.294 115.538,237.276 115.684,239.104 116.798 C 241.218 118.087,242.069 119.815,241.898 122.477 C 241.818 123.729,241.898 124.663,242.076 124.553 C 244.008 123.359,241.449 117.083,238.587 115.995 C 236.362 115.149,179.979 115.494,178.555 116.362 M240.678 126.605 C 240.312 127.372,240.095 128.000,240.196 128.000 C 240.470 128.000,241.684 125.551,241.501 125.368 C 241.414 125.281,241.044 125.838,240.678 126.605 M237.862 132.262 C 236.816 134.369,236.035 136.168,236.127 136.260 C 236.219 136.352,237.143 134.696,238.179 132.579 C 239.216 130.463,239.997 128.663,239.914 128.581 C 239.832 128.499,238.909 130.155,237.862 132.262 M234.066 140.057 C 233.195 141.896,229.581 149.322,226.034 156.559 C 222.487 163.797,219.664 169.798,219.761 169.894 C 219.858 169.991,221.146 167.580,222.623 164.535 C 224.100 161.491,227.717 154.068,230.661 148.041 C 233.606 142.013,235.932 136.999,235.831 136.898 C 235.731 136.797,234.936 138.219,234.066 140.057 M159.136 153.700 C 158.111 155.361,157.464 156.797,157.655 156.988 C 157.759 157.092,158.327 156.193,158.918 154.989 C 160.017 152.747,160.128 152.093,159.136 153.700 M156.736 158.500 C 156.431 158.995,155.973 159.850,155.719 160.400 C 155.465 160.950,153.339 165.330,150.996 170.134 C 148.653 174.938,146.809 178.942,146.899 179.032 C 147.035 179.168,151.447 170.340,156.461 159.900 C 157.596 157.538,157.720 156.907,156.736 158.500 M218.834 171.300 C 218.647 171.795,218.573 172.335,218.671 172.500 C 218.768 172.665,230.134 172.800,243.930 172.800 C 267.574 172.800,269.092 172.842,270.406 173.541 C 272.479 174.642,273.595 176.521,273.625 178.959 C 273.647 180.730,273.703 180.868,274.049 180.000 C 274.872 177.937,273.355 174.814,270.761 173.233 C 269.422 172.416,268.997 172.403,244.257 172.401 L 219.113 172.400 219.364 171.400 C 219.677 170.155,219.294 170.083,218.834 171.300 M142.573 187.451 C 140.448 191.823,136.830 199.245,134.532 203.944 C 132.234 208.643,130.420 212.554,130.502 212.635 C 130.583 212.716,132.607 208.782,134.999 203.891 C 137.392 199.001,141.021 191.591,143.065 187.424 C 145.108 183.256,146.703 179.769,146.608 179.675 C 146.513 179.580,144.697 183.079,142.573 187.451 M272.496 182.682 C 271.998 183.444,270.385 185.808,268.911 187.934 C 267.436 190.060,266.506 191.579,266.844 191.310 C 267.589 190.716,273.762 181.622,273.550 181.431 C 273.467 181.357,272.993 181.920,272.496 182.682 M262.570 197.100 C 256.416 205.962,255.598 207.200,255.903 207.190 C 256.066 207.184,257.550 205.192,259.200 202.762 C 260.850 200.332,262.975 197.232,263.923 195.872 C 265.804 193.172,266.515 192.000,266.270 192.000 C 266.183 192.000,264.518 194.295,262.570 197.100 M253.188 210.700 C 252.008 212.405,249.315 216.320,247.204 219.400 C 245.092 222.480,242.056 226.890,240.456 229.200 C 238.856 231.510,235.751 236.010,233.554 239.200 C 231.358 242.390,228.256 246.890,226.661 249.200 C 225.066 251.510,222.524 255.200,221.011 257.400 C 219.499 259.600,217.515 262.480,216.603 263.800 C 215.691 265.120,211.898 270.610,208.175 276.000 C 199.083 289.164,197.376 290.287,192.776 286.131 C 191.909 285.348,191.200 284.875,191.200 285.081 C 191.200 286.151,194.949 288.400,196.731 288.400 C 199.834 288.400,200.926 287.420,205.641 280.400 C 207.489 277.650,209.149 275.220,209.330 275.000 C 209.657 274.604,219.275 260.675,224.527 252.990 C 226.028 250.796,228.441 247.290,229.890 245.200 C 232.972 240.757,235.750 236.735,239.008 232.000 C 241.946 227.731,247.632 219.478,250.170 215.800 C 251.233 214.260,252.911 211.867,253.899 210.482 C 254.888 209.096,255.615 207.882,255.515 207.782 C 255.415 207.682,254.368 208.995,253.188 210.700 M128.179 216.981 C 126.063 221.478,125.836 223.838,127.308 226.041 C 129.239 228.932,127.658 228.799,160.067 228.799 C 176.054 228.800,189.419 228.909,189.767 229.043 C 190.336 229.261,190.400 232.064,190.400 256.619 C 190.400 271.653,190.535 284.036,190.700 284.138 C 191.201 284.448,190.851 229.544,190.349 228.939 C 189.999 228.517,184.058 228.394,159.964 228.307 L 130.013 228.200 128.542 226.729 C 126.427 224.613,126.219 221.929,127.911 218.574 C 129.429 215.563,130.417 213.200,130.158 213.200 C 130.048 213.200,129.157 214.901,128.179 216.981 " stroke="none" fill="#659fe5" fill-rule="evenodd"></path><path id="path4" d="M178.905 116.657 C 177.881 117.162,175.200 120.574,175.200 121.373 C 175.200 121.462,173.017 126.004,170.349 131.467 C 167.680 136.930,163.832 144.820,161.797 149.000 C 159.761 153.180,155.892 161.100,153.199 166.600 C 150.506 172.100,147.086 179.120,145.598 182.200 C 144.111 185.280,140.420 192.840,137.397 199.000 C 125.133 223.982,125.294 223.480,128.542 226.729 L 130.013 228.200 159.875 228.308 C 180.638 228.382,189.896 228.548,190.260 228.850 C 190.681 229.199,190.805 234.713,190.892 256.820 L 191.000 284.356 192.389 285.788 C 196.989 290.534,198.996 289.290,208.175 276.000 C 211.898 270.610,215.691 265.120,216.603 263.800 C 217.515 262.480,219.499 259.600,221.011 257.400 C 222.524 255.200,225.066 251.510,226.661 249.200 C 228.256 246.890,231.358 242.390,233.554 239.200 C 235.751 236.010,238.856 231.510,240.456 229.200 C 242.056 226.890,245.089 222.480,247.197 219.400 C 249.305 216.320,251.848 212.630,252.848 211.200 C 253.848 209.770,255.836 206.890,257.266 204.800 C 258.696 202.710,262.294 197.490,265.262 193.200 C 268.230 188.910,271.320 184.435,272.129 183.255 C 274.681 179.535,273.952 175.425,270.406 173.541 C 269.092 172.842,267.574 172.800,243.930 172.800 C 230.134 172.800,218.754 172.648,218.639 172.463 C 218.524 172.278,219.611 169.713,221.054 166.763 C 222.496 163.813,225.035 158.610,226.695 155.200 C 228.356 151.790,232.413 143.510,235.713 136.800 C 243.227 121.517,243.566 119.518,239.104 116.798 C 237.281 115.687,181.140 115.555,178.905 116.657 M239.287 117.400 C 242.753 119.952,242.416 121.916,236.404 134.200 C 233.712 139.700,230.382 146.540,229.003 149.400 C 227.624 152.260,224.576 158.544,222.229 163.364 C 219.883 168.185,218.055 172.366,218.166 172.656 C 218.330 173.083,223.222 173.203,243.914 173.291 L 269.459 173.400 270.908 174.393 C 274.667 176.969,274.290 179.184,268.700 187.367 C 260.906 198.777,257.580 203.612,252.994 210.200 C 250.544 213.720,247.250 218.490,245.673 220.800 C 238.958 230.639,232.030 240.672,231.311 241.600 C 230.885 242.150,228.339 245.840,225.654 249.800 C 221.336 256.169,216.737 262.862,208.561 274.676 C 207.219 276.614,205.280 279.433,204.251 280.939 C 200.181 286.900,198.648 288.022,195.672 287.218 C 190.997 285.954,191.200 287.373,191.200 255.893 C 191.200 235.478,191.084 228.844,190.720 228.480 C 190.355 228.115,183.188 228.000,160.907 228.000 C 129.520 228.000,129.997 228.029,128.200 226.013 C 126.173 223.740,126.830 221.438,133.167 208.600 C 136.316 202.220,140.290 194.120,141.998 190.600 C 146.521 181.281,152.483 169.049,157.401 159.000 C 161.934 149.738,168.079 137.145,173.577 125.849 C 176.775 119.278,177.747 117.776,179.400 116.860 C 181.067 115.935,237.994 116.448,239.287 117.400 " stroke="none" fill="#83b5ec" fill-rule="evenodd"></path></g></svg>